PathFileType	4	(X/Y/Z)	C:\Users\Basilio\Documents\Thesis Gigler\squatting_fais\c3dfiles\039\SLS_pre_back5\markers_experimental.trc
DataRate	CameraRate	NumFrames	NumMarkers	Units	OrigDataRate	OrigDataStartFrame	OrigNumFrames
200.000000	200.000000	4	65	mm	200.000000	1450	1934
Frame#	Time	FHD			LBHD			RBHD			C7			T10			CLAV			LSHO			LUUPA			LMUPA			LDUPA			LLEP			LMEP			LRAD			LUL			LRFIN			RSHO			RUPA1			RMUPA			RDUPA			RLEP			RMEP			RRAD			RUL			RUFIN			LASI			RASI			USACR			LSACR			RSACR			LTHI1			LTHI2			LTHI3			LTHI4			LLFC			LMFC			LTIB1			LTIB2			LTIB3			LTIB4			LLMAL			LMMAL			LHEE			LMT1			LMT2			LMT5			RTHI			RTHI2			RTHI3			RTHI4			RLFC			RMFC			RTIB1			RTIB2			RTIB3			RTIB4			RLMAL			RMMAL			RHEE			RMT1			RMT2			RMT5			*61			*62			*63			*64			
		X1	Y1	Z1	X2	Y2	Z2	X3	Y3	Z3	X4	Y4	Z4	X5	Y5	Z5	X6	Y6	Z6	X7	Y7	Z7	X8	Y8	Z8	X9	Y9	Z9	X10	Y10	Z10	X11	Y11	Z11	X12	Y12	Z12	X13	Y13	Z13	X14	Y14	Z14	X15	Y15	Z15	X16	Y16	Z16	X17	Y17	Z17	X18	Y18	Z18	X19	Y19	Z19	X20	Y20	Z20	X21	Y21	Z21	X22	Y22	Z22	X23	Y23	Z23	X24	Y24	Z24	X25	Y25	Z25	X26	Y26	Z26	X27	Y27	Z27	X28	Y28	Z28	X29	Y29	Z29	X30	Y30	Z30	X31	Y31	Z31	X32	Y32	Z32	X33	Y33	Z33	X34	Y34	Z34	X35	Y35	Z35	X36	Y36	Z36	X37	Y37	Z37	X38	Y38	Z38	X39	Y39	Z39	X40	Y40	Z40	X41	Y41	Z41	X42	Y42	Z42	X43	Y43	Z43	X44	Y44	Z44	X45	Y45	Z45	X46	Y46	Z46	X47	Y47	Z47	X48	Y48	Z48	X49	Y49	Z49	X50	Y50	Z50	X51	Y51	Z51	X52	Y52	Z52	X53	Y53	Z53	X54	Y54	Z54	X55	Y55	Z55	X56	Y56	Z56	X57	Y57	Z57	X58	Y58	Z58	X59	Y59	Z59	X60	Y60	Z60	X61	Y61	Z61	X62	Y62	Z62	X63	Y63	Z63	X64	Y64	Z64	X65	Y65	Z65	

1451	7.25	-172.1842041015625	1670.261474609375	-658.0350341796876	-334.2927246093751	1653.94287109375	-775.9415283203127	-303.8371582031251	1652.7451171875	-637.4094238281251	-383.1913452148438	1495.903076171875	-718.3436279296876	-457.5158081054689	1206.612915039063	-770.2214355468752	nan	nan	nan	-312.5648193359376	1513.482421875	-871.6098632812502	-148.5374908447266	1483.09912109375	-983.8266601562502	-125.6573333740235	1512.535766601563	-950.7473754882815	-79.31845092773439	1492.781494140625	-982.3026123046877	-12.06390380859375	1501.028564453125	-975.8919677734377	-7.261986732482912	1427.151977539063	-948.4445800781252	260.4662780761719	1529.946166992188	-870.3377685546877	264.7248229980469	1540.13720703125	-946.195739746094	337.6946716308594	1574.252563476563	-859.5115356445315	-258.8398132324219	1488.402099609375	-566.9832763671876	-100.1053924560547	1409.764038085938	-472.1932373046876	-73.26031494140626	1445.742431640625	-494.4050598144532	-30.87303161621094	1406.772338867188	-474.4188232421876	32.17000579833985	1421.871948242188	-484.4452209472657	36.43703079223634	1359.85400390625	-532.2727661132814	315.2228393554688	1481.130615234375	-574.0767211914064	320.9116516113282	1462.45751953125	-500.5559387207032	394.6862182617189	1526.33349609375	-566.7866821289064	-351.2947692871094	990.5111083984377	-890.3673095703127	-346.2633056640626	994.8433227539065	-667.4572753906251	-513.6437988281251	1083.865600585938	-775.3156738281252	-525.8704833984376	1051.959594726563	-801.3713989257815	-524.0534057617189	1054.69482421875	-742.0912475585939	-373.1040954589844	733.7869262695314	-990.4479980468752	-318.6811218261719	669.6044311523439	-1008.537658691406	-272.9415893554688	681.7879638671876	-1002.810180664063	-329.0082092285157	608.5988159179689	-996.4935302734377	-302.4251708984376	528.0671997070314	-993.2287597656252	-266.3457641601563	486.0164184570314	-888.8538818359377	-383.1208190917969	421.0826110839845	-952.5406494140627	-445.6733703613282	481.7631225585939	-975.2025146484377	-438.2993469238282	440.015350341797	-964.989440917969	-501.8118286132814	421.0300903320314	-908.1177978515627	-690.7221069335939	443.2659606933595	-886.683532714844	-647.1445312500001	433.4141235351564	-811.3026123046877	-710.8817749023439	515.0768432617189	-845.361022949219	-706.2123413085939	294.0286560058594	-767.9669189453126	-735.9230957031251	291.8595581054688	-799.6563720703127	-788.4929199218752	328.8033447265626	-827.0358886718752	-320.1962890625001	746.3964233398439	-599.0842895507814	-260.8474731445313	714.6684570312501	-599.4271850585939	-232.7149810791016	730.8522949218751	-605.9636840820314	-251.7355194091797	630.2876586914064	-612.8053588867189	-234.6982727050782	505.1240539550782	-649.0520629882814	-200.8319396972657	511.7804565429689	-760.5958251953126	-237.3690643310547	303.5295104980469	-696.9301757812501	-334.1106567382813	257.2570800781251	-696.7246093750001	-290.9948425292969	239.2164459228516	-702.1191406250001	-282.7989807128907	192.989242553711	-740.2357177734376	-367.2597351074219	113.2153091430664	-733.0154418945314	-333.5614624023438	139.4064178466797	-812.7044677734377	-438.2979125976564	98.03091430664065	-790.4790649414065	-211.9601287841797	61.02690505981447	-800.5191650390627	-215.9835815429688	57.31332397460939	-754.5051879882814	-272.9612731933594	33.08152008056641	-707.4412841796876	nan	nan	nan	nan	nan	nan	nan	nan	nan	nan	nan	nan	
1452	7.255	-172.5650634765625	1671.277465820313	-658.0042724609376	-334.5075378417969	1655.258178710938	-775.988952636719	-304.2877502441407	1654.022583007813	-637.3101806640626	-383.3330078125001	1496.893676757813	-718.4039916992189	-457.7600402832032	1207.498657226563	-770.1995239257815	nan	nan	nan	-312.8258361816407	1514.560546875	-871.6480102539065	-148.94384765625	1484.2197265625	-983.9245605468752	-126.096061706543	1514.015869140625	-950.7998657226565	-79.63553619384767	1494.034545898438	-982.3252563476565	-12.47615432739258	1502.025146484375	-975.8733520507815	-7.717351436614992	1428.108032226563	-948.3743286132815	260.3136291503907	1531.259155273438	-870.4267578125002	264.3354187011719	1541.258422851563	-946.2108154296877	337.3390502929688	1575.473876953125	-859.6333618164065	-259.0646972656251	1489.470703125	-566.9941406250001	-100.3521270751953	1410.878784179688	-472.0896606445314	-73.4918899536133	1446.835815429688	-494.2214355468751	-31.08168411254884	1407.786254882813	-474.2597656250001	31.82782173156739	1422.861083984375	-484.4444274902345	36.28273391723634	1361.471923828125	-531.5709838867189	315.0551757812501	1482.008911132813	-573.9085083007814	320.7688293457032	1463.537109375	-500.180389404297	394.478973388672	1527.088989257813	-566.5492553710939	-351.0470581054688	991.5327758789065	-890.2767333984377	-345.9518127441407	995.948669433594	-667.3026733398439	-513.4277954101564	1084.759399414063	-775.1650390625002	-525.5460815429689	1052.773071289063	-801.0779418945315	-523.9971313476564	1055.552612304688	-741.9267578125001	-372.9254455566407	734.7283325195314	-990.350280761719	-318.7117309570313	670.6047363281251	-1008.554077148438	-272.1179809570313	682.2374877929689	-1002.535095214844	-328.9538574218751	609.3926391601564	-996.4769287109377	-302.3376770019532	528.8965454101564	-993.1542968750002	-266.2781677246094	486.8566894531251	-888.849792480469	-382.8537292480469	422.4599609375001	-953.3417968750002	-445.7857055664064	482.587860107422	-975.180603027344	-438.2246704101564	440.8772888183595	-964.9246215820315	-501.5174255371095	422.0012207031251	-906.523132324219	-690.7874145507814	444.0090332031251	-886.7199707031252	-647.2009887695314	434.0165405273439	-811.2296142578127	-710.9196166992189	515.7493286132814	-845.3772583007815	-706.2608642578126	294.4016418457032	-768.065124511719	-735.9055786132814	292.6971130371094	-799.7957153320315	-788.8189086914065	329.5813598632813	-827.1398925781252	-320.1926269531251	747.0419921875001	-598.9633178710939	-261.0685424804688	715.1092529296876	-599.5641479492189	-232.9616241455079	731.2808227539064	-605.8958740234376	-252.2407379150391	630.7821044921876	-612.6702880859376	-235.5122222900391	505.4610290527345	-649.1665039062501	-201.5208129882813	512.4671630859376	-760.6447143554689	-237.6864471435547	303.6363220214844	-697.0047607421876	-334.4003906250001	257.2876892089844	-696.7374877929689	-291.2219543457032	239.2768554687501	-702.2336425781251	-282.9654541015626	193.0654907226563	-740.3229370117189	-367.2525634765626	113.1830596923828	-733.0134277343751	-333.5890197753907	139.3441314697266	-812.7927246093752	-438.2474670410157	98.02058410644534	-790.556823730469	-211.9516906738282	60.99594879150392	-800.5634765625002	-215.9794464111329	57.24077224731447	-754.5145874023439	-272.9677124023438	33.03151321411134	-707.4379272460939	nan	nan	nan	nan	nan	nan	nan	nan	nan	nan	nan	nan	
1453	7.26	-172.9330291748047	1672.661743164063	-657.9272460937501	-335.3063049316407	1656.335083007813	-776.0063476562502	-304.6906433105469	1655.209350585938	-637.3619384765626	-383.6674194335938	1498.107666015625	-718.4104003906251	-457.6443176269532	1208.441040039063	-770.0150146484377	nan	nan	nan	-313.1653747558594	1515.692626953125	-871.744567871094	-149.2349243164063	1485.249877929688	-983.962097167969	-126.5139770507813	1515.029418945313	-950.8506469726565	-79.95104980468751	1495.15673828125	-982.3468017578127	-12.82108020782471	1503.212890625	-976.001159667969	-7.971224308013918	1429.421142578125	-948.4110107421877	259.9865722656251	1532.526977539063	-870.560241699219	264.0018005371094	1542.694946289063	-946.4088134765627	337.0799255371094	1576.968383789063	-859.7761840820315	-259.2384948730469	1490.757934570313	-567.0562744140626	-100.7445831298828	1411.950805664063	-472.0776367187501	-73.77931976318361	1447.83740234375	-494.186248779297	-31.38782501220704	1408.8720703125	-474.3180541992189	31.49633216857911	1423.767944335938	-484.3032836914064	36.04048156738282	1362.435424804688	-531.7409667968751	315.2471008300782	1482.57421875	-573.9268798828126	320.4663391113282	1464.418212890625	-499.9976501464845	394.2726135253907	1527.845458984375	-566.2647705078126	-350.6907653808594	992.7075195312502	-890.224792480469	-345.6429443359376	997.053161621094	-667.2421875000001	-513.1873779296876	1085.6953125	-775.0875244140627	-525.2424316406251	1053.727172851563	-800.947204589844	-523.8020629882814	1056.442504882813	-741.7983398437501	-372.7282409667969	735.6730346679689	-990.2725830078127	-318.6615905761719	671.6920776367189	-1008.361877441406	-272.1088867187501	683.2950439453126	-1002.505798339844	-328.8306274414063	610.3749389648439	-996.3922119140627	-302.3096008300782	529.6433105468751	-993.101745605469	-266.2879333496094	487.4161682128907	-888.757263183594	-383.1382751464844	423.8694152832032	-953.4248046875002	-445.8173217773439	483.2738647460939	-975.137634277344	-438.2166137695314	441.6102905273439	-964.957458496094	-501.7051086425782	422.9297790527345	-906.564147949219	-690.7929077148439	444.6594238281251	-886.684265136719	-647.2625122070314	434.7628784179689	-811.1282348632815	-710.9797363281251	516.4582519531251	-845.3225097656252	-706.2657470703126	295.1250000000001	-767.9843139648439	-735.9381713867189	293.0998840332032	-799.712341308594	-788.9177856445315	330.3786926269532	-827.1262207031252	-320.2675476074219	747.7302856445314	-598.8338623046876	-261.2265014648438	715.7014770507814	-599.6730957031251	-233.0898742675782	731.7406616210939	-605.8900756835939	-252.7869415283204	631.1826782226564	-612.7772827148439	-236.2742767333985	505.7783203125001	-649.3118286132814	-202.3999328613282	512.4464111328126	-760.7935791015626	-238.0639038085938	303.7995300292969	-697.1122436523439	-334.6861572265626	257.3028564453126	-696.8502197265626	-291.4234924316407	239.3400573730469	-702.3960571289064	-283.0567932128907	193.1322784423829	-740.3925781250001	-367.2982788085938	113.1884078979492	-733.1195068359376	-333.6835937500001	139.3358612060547	-812.8808593750002	-438.2356567382814	98.00599670410159	-790.550720214844	-211.9219818115235	60.83858489990236	-800.5821533203127	-215.9745025634766	57.22054290771486	-754.5648193359376	-272.9654235839844	33.07929611206055	-707.4649047851564	nan	nan	nan	nan	nan	nan	nan	nan	nan	nan	nan	nan	
1454	7.265000000000001	-173.3045806884766	1673.778442382813	-658.0371093750001	-335.4931335449219	1657.621215820313	-776.123962402344	-305.0939025878907	1656.618408203125	-637.3430786132814	-383.9870910644532	1499.244140625	-718.4719238281251	-457.5747070312501	1209.515502929688	-769.8875732421877	nan	nan	nan	-313.9758911132813	1516.930297851563	-871.9295043945315	-149.5329742431641	1486.470825195313	-983.9494628906252	-126.8886184692383	1516.202514648438	-950.8613891601565	-80.40166473388673	1496.189819335938	-982.3756103515627	-13.18364429473877	1504.458251953125	-975.9260864257815	-8.16726589202881	1430.328735351563	-948.4353027343752	259.6661071777344	1533.98486328125	-870.6721801757815	263.5115966796876	1543.807373046875	-946.4058837890627	336.8089599609376	1577.936767578125	-860.0141601562502	-259.5304565429688	1491.96728515625	-567.0072631835939	-101.0958557128907	1412.918579101563	-471.9679260253907	-73.8523635864258	1448.830322265625	-494.201629638672	-31.81427001953126	1409.790405273438	-474.0325317382814	31.30679321289063	1424.752319335938	-484.2498168945314	35.58938217163087	1363.247436523438	-531.9317016601564	315.0545654296876	1483.432495117188	-573.7482299804689	320.0056762695313	1465.045776367188	-500.2401428222657	394.0315856933595	1528.696655273438	-566.1484985351564	-350.4495239257813	993.672058105469	-890.1112060546877	-345.7412719726563	997.6802368164065	-667.3693847656251	-513.0920410156251	1086.743896484375	-774.9543457031252	-525.0748291015626	1054.594360351563	-800.8695068359377	-523.6274414062501	1057.414428710938	-741.6332397460939	-372.6390991210938	736.6418457031251	-990.1204223632815	-318.4425964355469	672.4907226562501	-1008.280578613281	-272.0176391601563	684.2009277343751	-1002.435852050781	-328.8238525390626	611.2358398437501	-996.2420043945315	-302.3948669433594	530.5693969726564	-993.035827636719	-266.2881774902344	488.239715576172	-888.6306152343752	-383.0333862304688	424.7351989746095	-953.2617187500002	-445.6118469238282	483.9968566894532	-974.925964355469	-438.3424072265626	442.4566345214845	-964.894958496094	-501.6407775878907	423.6307373046876	-906.4724731445315	-690.7517089843751	445.1635742187501	-886.5999755859377	-647.7741699218751	434.8062438964845	-811.7720947265627	-711.0613403320314	517.1871337890626	-845.2525634765627	-706.3956298828126	295.8615722656251	-767.9385375976564	-735.9162597656251	293.6943359375001	-799.7090454101565	-788.803649902344	330.9495239257813	-827.0932617187502	-320.3987731933594	748.4362792968751	-598.7579956054689	-261.3517456054688	716.2565917968751	-599.6691894531251	-233.134750366211	732.0639648437501	-605.9046630859376	-253.3433074951172	631.6343994140626	-612.8937988281251	-236.7937774658204	506.2936096191407	-649.3854370117189	-203.3214263916016	512.8060913085939	-760.9748535156251	-238.3364257812501	304.0368347167969	-697.1561889648439	-334.9821472167969	257.3383178710938	-697.0011596679689	-291.5699157714844	239.4660949707032	-702.4578247070314	-283.2917175292969	193.4474029541016	-740.5138549804689	-367.3210144042969	113.1696166992188	-733.1672973632814	-333.7693786621094	139.2816009521485	-813.0590820312502	-438.2461853027345	97.92585754394534	-790.713562011719	-211.930648803711	60.66346359252931	-800.604431152344	-215.9955291748047	56.96070480346681	-754.6791381835939	-272.9539794921876	33.02630233764649	-707.4456176757814	nan	nan	nan	nan	nan	nan	nan	nan	nan	nan	nan	nan	
